<?xml version="1.0" standalone="no"?>
<!DOCTYPE svg PUBLIC "-//W3C//DTD SVG 20010904//EN"
 "http://www.w3.org/TR/2001/REC-SVG-20010904/DTD/svg10.dtd">
<svg version="1.0" xmlns="http://www.w3.org/2000/svg"
 width="517.000000pt" height="517.000000pt" viewBox="0 0 517.000000 517.000000"
 preserveAspectRatio="xMidYMid meet">
<metadata>
Created by potrace 1.14, written by Peter Selinger 2001-2017
</metadata>
<g transform="translate(0.000000,517.000000) scale(0.100000,-0.100000)"
fill="#000000" stroke="none">
<path d="M2437 5164 c-1 -1 -51 -4 -112 -8 -60 -3 -121 -8 -135 -11 -14 -3
-52 -10 -85 -15 -100 -18 -282 -69 -399 -112 -698 -256 -1254 -805 -1523
-1503 -43 -112 -87 -243 -98 -295 -71 -321 -84 -434 -79 -700 2 -113 6 -218 9
-235 2 -16 7 -52 10 -80 3 -27 7 -57 10 -65 2 -8 7 -31 10 -50 10 -60 52 -221
83 -315 159 -487 483 -936 912 -1261 211 -160 515 -321 754 -398 181 -59 232
-71 387 -91 76 -9 265 -18 399 -18 434 0 665 43 1004 188 105 45 290 138 316
160 8 6 43 28 77 49 80 48 220 153 311 234 302 268 525 581 683 957 43 100
103 273 114 321 2 10 11 52 19 91 24 110 31 159 45 300 8 76 6 524 -3 573 -2
14 -7 50 -10 80 -4 30 -9 62 -11 70 -3 8 -7 35 -10 60 -8 64 -48 220 -89 341
-86 260 -213 494 -395 729 -134 173 -400 426 -546 522 -27 18 -52 35 -55 39
-7 9 -130 83 -225 136 -128 71 -397 184 -494 209 -9 2 -59 15 -111 29 -88 23
-115 29 -195 41 -16 3 -41 7 -55 10 -60 10 -503 26 -513 18z"/>
</g>
</svg>
